SplineFontDB: 3.2
FontName: AnalysisSans
FullName: Analysis Sans
FamilyName: Analysis Sans
Weight: Regular
Copyright: Copyright (c) 2024, Bastien
UComments: "2024-12-25: Created with FontForge (http://fontforge.org)"
Version: 001.000
ItalicAngle: 0
UnderlinePosition: -102
UnderlineWidth: 51
Ascent: 800
Descent: 224
InvalidEm: 0
LayerCount: 2
Layer: 0 0 "Arri+AOgA-re" 1
Layer: 1 0 "Avant" 0
XUID: [1021 760 1580941675 4706664]
FSType: 0
OS2Version: 0
OS2_WeightWidthSlopeOnly: 0
OS2_UseTypoMetrics: 1
CreationTime: 1735138560
ModificationTime: 1737473101
PfmFamily: 17
TTFWeight: 400
TTFWidth: 5
LineGap: 192
VLineGap: 0
OS2TypoAscent: 800
OS2TypoAOffset: 0
OS2TypoDescent: -224
OS2TypoDOffset: 0
OS2TypoLinegap: 192
OS2WinAscent: 800
OS2WinAOffset: 0
OS2WinDescent: 224
OS2WinDOffset: 0
HheadAscent: 800
HheadAOffset: 0
HheadDescent: 224
HheadDOffset: 0
OS2Vendor: 'PfEd'
Lookup: 258 0 0 "Kern Latin" { "Kern Latin-Latin" [153,0,2] } ['kern' ('DFLT' <'dflt' > 'latn' <'dflt' > ) ]
MarkAttachClasses: 1
DEI: 91125
KernClass2: 26 17 "Kern Latin-Latin"
 52 A Z Agrave Aacute Acircumflex Atilde Adieresis Aring
 46 O Q Ograve Oacute Ocircumflex Otilde Odieresis
 1 C
 1 D
 5 H M N
 3 F P
 77 I i l Igrave Iacute Icircumflex Idieresis igrave iacute icircumflex idieresis
 39 J U Ugrave Uacute Ucircumflex Udieresis
 3 K R
 1 L
 1 S
 10 T Y Yacute
 3 V W
 50 a agrave aacute acircumflex atilde adieresis aring
 3 b p
 43 c d e q egrave eacute ecircumflex edieresis
 3 f t
 50 h m n u ntilde ugrave uacute ucircumflex udieresis
 1 g
 26 k v w x y yacute ydieresis
 44 o ograve oacute ocircumflex otilde odieresis
 1 r
 3 s z
 9 ampersand
 3 one
 50 A Agrave Aacute Acircumflex Atilde Adieresis Aring
 48 C O Q Ograve Oacute Ocircumflex Otilde Odieresis
 86 I i l Igrave Iacute Icircumflex Idieresis igrave iacute icircumflex idieresis dotlessi
 1 S
 14 T V W Y Yacute
 50 a agrave aacute acircumflex atilde adieresis aring
 22 b h k m n p r s ntilde
 45 c d e q u egrave eacute ecircumflex edieresis

StartChar: A
Encoding: 65 65 0
Width: 619
VWidth: 1048
Flags: W
HStem: 0 21G<24 103.016 516.663 595> 184 62<155 496> 687 20G<267.9 375.393>
VStem: 523 72<0 22.4238>
AnchorPoint: "AccentCenter" 321 880 basechar 0
LayerCount: 2
Fore
SplineSet
155 246 m 1
 496 246 l 1
 496 184 l 1
 155 184 l 1
 155 246 l 1
369 707 m 1
 595 0 l 5
 523 0 l 5
 299 707 l 1
 369 707 l 1
275 707 m 1
 344 707 l 1
 96 0 l 1
 24 0 l 1
 275 707 l 1
EndSplineSet
Validated: 5
Colour: ff0000
EndChar

StartChar: B
Encoding: 66 66 1
Width: 619
VWidth: 1048
Flags: W
HStem: 0 61<160 430.347> 347 62<160 414.66> 646 61<160 411.044>
VStem: 88 72<61 347 409 646> 458 74<450.956 604.463> 489 74<120.479 284.946>
LayerCount: 2
Fore
SplineSet
160 646 m 1xf8
 160 409 l 1
 325 409 l 2
 408 409 458 441 458 531 c 0
 458 620 396 646 319 646 c 2
 160 646 l 1xf8
160 347 m 1
 160 61 l 1
 342 61 l 2
 425 61 489 105 489 201 c 0xf4
 489 301 422 347 319 347 c 2
 160 347 l 1
88 0 m 1
 88 707 l 1
 321 707 l 2
 445 707 532 646 532 535 c 4xf8
 532 440 471 397 422 377 c 1
 505 360 563 293 563 196 c 0
 563 56 458 0 342 0 c 2
 88 0 l 1
EndSplineSet
Validated: 1
EndChar

StartChar: C
Encoding: 67 67 2
Width: 624
VWidth: 1048
Flags: W
HStem: -8 64<254.818 455.275> 651 64<250.115 444.878>
VStem: 56 72<209.487 507.367>
LayerCount: 2
Fore
SplineSet
350 715 m 1
 476 715 544 646 576 592 c 1
 519 559 l 1
 474 629 413 651 351 651 c 1
 205 651 128 542 128 360 c 1
 128 194 191 56 349 56 c 1
 446 56 493 91 540 159 c 1
 592 115 l 1
 539 43 478 -8 348 -8 c 1
 154 -8 56 157 56 362 c 0
 56 574 175 715 350 715 c 1
EndSplineSet
Validated: 1
EndChar

StartChar: D
Encoding: 68 68 3
Width: 647
VWidth: 1048
Flags: W
HStem: 0 61<160 372.942> 646 61<160 375.459>
VStem: 518 73<215.9 492.809>
LayerCount: 2
Fore
SplineSet
160 707 m 1
 266 707 l 1
 480 707 591 566 591 361 c 0
 591 138 479 0 262 0 c 1
 160 0 l 5
 160 61 l 5
 264 61 l 1
 404 61 518 138 518 361 c 0
 518 566 403 646 266 646 c 1
 160 646 l 1
 160 707 l 1
88 707 m 1
 160 707 l 1
 160 0 l 1
 88 0 l 1
 88 707 l 1
EndSplineSet
Validated: 5
EndChar

StartChar: E
Encoding: 69 69 4
Width: 575
VWidth: 1048
Flags: W
HStem: 0 61<160 527> 350 66<159 449> 646 61<160 527>
VStem: 159 1<350 416>
AnchorPoint: "AccentCenter" 308 880 basechar 0
LayerCount: 2
Fore
SplineSet
159 416 m 5
 449 416 l 5
 449 350 l 5
 159 350 l 5
 159 416 l 5
160 61 m 5
 527 61 l 5
 527 0 l 5
 160 0 l 5
 160 61 l 5
160 707 m 5
 527 707 l 5
 527 646 l 5
 160 646 l 5
 160 707 l 5
88 707 m 5
 160 707 l 5
 160 0 l 5
 88 0 l 5
 88 707 l 5
EndSplineSet
Validated: 5
EndChar

StartChar: F
Encoding: 70 70 5
Width: 576
VWidth: 1048
Flags: W
HStem: 0 21G<88 161> 354 66<161 458> 646 61<161 536>
VStem: 88 73<0 354 420 646>
LayerCount: 2
Fore
SplineSet
161 420 m 1
 458 420 l 1
 458 354 l 1
 161 354 l 1
 161 420 l 1
161 707 m 1
 536 707 l 1
 536 646 l 1
 161 646 l 1
 161 707 l 1
88 707 m 1
 161 707 l 1
 161 0 l 1
 88 0 l 1
 88 707 l 1
EndSplineSet
Validated: 5
Colour: ff0000
EndChar

StartChar: G
Encoding: 71 71 6
Width: 651
VWidth: 1048
Flags: W
HStem: -8 61<257.689 459.92> 340 62<347 520> 653 62<262.027 453.555>
VStem: 56 74<204.602 497.471> 520 75<101.809 340>
LayerCount: 2
Fore
SplineSet
595 115 m 1
 546 42 480 -8 351 -8 c 1
 223 -8 56 68 56 358 c 1
 56 592 195 715 359 715 c 1
 455 715 526.3 677 576 606 c 1
 527 565 l 1
 490.168945312 622 432 653 360 653 c 1
 222 653 132 552 130 358 c 1
 130 120 245 53 353 53 c 1
 438 53 480 77 520 124 c 1
 520 340 l 1
 347 340 l 1
 347 402 l 1
 595 402 l 1
 595 115 l 1
EndSplineSet
Validated: 1
EndChar

StartChar: H
Encoding: 72 72 7
Width: 659
VWidth: 1048
Flags: W
HStem: 0 21G<88 160 499 571> 346 66<125 534> 687 20G<88 160 499 571>
VStem: 88 72<0 346 412 707> 125 35<346 412> 499 72<0 346 412 707> 499 35<346 412>
LayerCount: 2
Fore
SplineSet
125 412 m 1xea
 534 412 l 1
 534 346 l 1
 125 346 l 1
 125 412 l 1xea
499 707 m 1xe4
 571 707 l 1
 571 0 l 1
 499 0 l 1
 499 707 l 1xe4
88 707 m 1xf0
 160 707 l 1
 160 0 l 1
 88 0 l 1
 88 707 l 1xf0
EndSplineSet
Validated: 5
EndChar

StartChar: I
Encoding: 73 73 8
Width: 248
VWidth: 1048
Flags: W
HStem: 0 21G<88 160> 687 20G<88 160>
VStem: 88 72<0 707>
AnchorPoint: "AccentCenter" 124 880 basechar 0
LayerCount: 2
Fore
SplineSet
88 707 m 5
 160 707 l 5
 160 0 l 1
 88 0 l 1
 88 707 l 5
EndSplineSet
Validated: 1
EndChar

StartChar: J
Encoding: 74 74 9
Width: 374
VWidth: 1048
Flags: W
HStem: -8 61<44.4103 166.242> 687 20G<222 294>
VStem: 222 72<118.471 707>
LayerCount: 2
Fore
SplineSet
294 707 m 1
 294 234 l 1
 294 76 216 -8 91 -8 c 1
 68 -8 45 -3 32 4 c 1
 48 59 l 1
 59 54 75 53 87 53 c 3
 183 53 222 118 222 231 c 1
 222 707 l 1
 294 707 l 1
EndSplineSet
Validated: 1
EndChar

StartChar: K
Encoding: 75 75 10
Width: 575
VWidth: 1048
Flags: W
HStem: 0 21G<88 160 430.26 543> 687 20G<88 160 428.493 542>
VStem: 88 72<0 707>
LayerCount: 2
Fore
SplineSet
543 0 m 5
 447 0 l 5
 144 362 l 1
 187 401 l 1
 543 0 l 5
187 319 m 1
 144 362 l 1
 446 707 l 5
 542 707 l 5
 187 319 l 1
88 707 m 1
 160 707 l 1
 160 0 l 1
 88 0 l 1
 88 707 l 1
EndSplineSet
Validated: 5
Colour: ff0000
EndChar

StartChar: L
Encoding: 76 76 11
Width: 518
VWidth: 1048
Flags: W
HStem: 0 61<152 478> 687 20G<80 152>
VStem: 80 72<61 707>
LayerCount: 2
Fore
SplineSet
152 61 m 5
 478 61 l 1
 478 0 l 1
 152 0 l 5
 152 61 l 5
80 707 m 1
 152 707 l 1
 152 0 l 1
 80 0 l 1
 80 707 l 1
EndSplineSet
Validated: 5
EndChar

StartChar: M
Encoding: 77 77 12
Width: 741
VWidth: 1048
Flags: W
HStem: 0 21G<88 160 581 653> 687 20G<88 180.91 560.396 653>
VStem: 88 72<0 578> 154 6<578 707> 581 72<0 578> 581 7<578 707>
LayerCount: 2
Fore
SplineSet
588 707 m 17xc4
 588 578 l 1
 418 184 l 1
 344 184 l 1
 569 707 l 1
 588 707 l 17xc4
154 707 m 25xd0
 172 707 l 1
 405 184 l 1
 332 184 l 1
 154 578 l 1
 154 707 l 25xd0
581 707 m 1xc4
 653 707 l 1
 653 0 l 1
 581 0 l 1xc8
 581 707 l 1xc4
88 707 m 1xe0
 160 707 l 1xd0
 160 0 l 1
 88 0 l 1
 88 707 l 1xe0
EndSplineSet
Validated: 5
EndChar

StartChar: N
Encoding: 78 78 13
Width: 667
VWidth: 1048
Flags: W
HStem: 0 21G<88 160 485.514 579> 687 20G<88 181.616 507 579>
VStem: 88 72<0 599> 153 7<599 707> 507 72<113 707> 507 8<0 113>
LayerCount: 2
Fore
SplineSet
153 707 m 1xd4
 170 707 l 1
 515 113 l 1
 515 0 l 1
 497 0 l 1
 153 599 l 1
 153 707 l 1xd4
507 707 m 1xc8
 579 707 l 1
 579 0 l 1xc8
 507 0 l 1xc4
 507 707 l 1xc8
88 707 m 1xe0
 160 707 l 1xd0
 160 0 l 1
 88 0 l 1
 88 707 l 1xe0
EndSplineSet
Validated: 5
EndChar

StartChar: O
Encoding: 79 79 14
Width: 694
VWidth: 1048
Flags: W
HStem: -8 61<253.107 445.45> 653 62<252.283 446.626>
VStem: 56 72<203.006 506.943> 565 73<198.366 507.258>
AnchorPoint: "AccentCenter" 351 880 basechar 0
LayerCount: 2
Fore
SplineSet
128 354 m 0
 128 136 226 53 350 53 c 0
 474 53 565 136 565 354 c 0
 565 572 474 653 350 653 c 4
 226 653 128 572 128 354 c 0
56 354 m 0
 56 626 210 715 350 715 c 4
 490 715 638 624 638 357 c 0
 638 89 500 -8 350 -8 c 0
 198 -8 56 93 56 354 c 0
EndSplineSet
Validated: 1
EndChar

StartChar: P
Encoding: 80 80 15
Width: 605
VWidth: 1048
Flags: W
HStem: 0 21G<88 155> 263 61<155 393.606> 646 61<155 401.45>
VStem: 88 67<0 263 324 646> 477 72<406.174 570.609>
LayerCount: 2
Fore
SplineSet
155 707 m 5
 155 707 253 707 327 707 c 0
 458 707 549 609 549 491 c 0
 549 364 452 263 309 263 c 9
 155 263 l 1
 155 324 l 1
 309 324 l 17
 412 324 477 401 477 491 c 0
 477 577 411 646 327 646 c 9
 155 646 l 5
 155 707 l 5
88 707 m 1
 155 707 l 1
 155 0 l 1
 88 0 l 1
 88 707 l 1
EndSplineSet
Validated: 5
Colour: ff0000
EndChar

StartChar: Q
Encoding: 81 81 16
Width: 694
VWidth: 1048
Flags: W
HStem: -184 60<450.491 593.817> -8 8<336 400> 653 62<252.283 446.722>
VStem: 56 72<203.006 506.943> 566 72<198.366 507.258>
AnchorPoint: "AccentCenter" 362 880 basechar 0
LayerCount: 2
Fore
SplineSet
128 354 m 0
 128 136 226 53 350 53 c 0
 474 53 566 136 566 354 c 0
 566 572 474 653 350 653 c 0
 226 653 128 572 128 354 c 0
56 354 m 0
 56 626 210 715 350 715 c 0
 490 715 638 624 638 357 c 0
 638 89 500 -8 350 -8 c 0
 198 -8 56 93 56 354 c 0
400 0 m 25
 400 0 407 -124 518 -124 c 0
 560 -124 590 -104 590 -104 c 25
 612 -152 l 1
 612 -152 578 -184 510 -184 c 0
 395 -184 336 -80 336 0 c 9
 400 0 l 25
EndSplineSet
Validated: 5
EndChar

StartChar: R
Encoding: 82 82 17
Width: 591
VWidth: 1048
Flags: W
HStem: 0 21G<88 160 465.707 559> 283 61<160 383.651> 646 61<160 390.815>
VStem: 88 72<0 283 344 646> 460 74<416.648 576.96>
LayerCount: 2
Fore
SplineSet
311 294 m 1
 370 294 l 1
 410 264 l 1
 559 0 l 1
 477 0 l 1
 311 294 l 1
160 707 m 1
 160 707 237 707 311 707 c 0
 442 707 534 617 534 499 c 0
 534 372 435 283 292 283 c 1
 160 283 l 1
 160 344 l 1
 292 344 l 1
 395 344 460 409 460 499 c 0
 460 585 395 646 311 646 c 1
 160 646 l 1
 160 707 l 1
88 707 m 1
 160 707 l 1
 160 0 l 1
 88 0 l 1
 88 707 l 1
EndSplineSet
Validated: 5
Colour: ff0000
EndChar

StartChar: S
Encoding: 83 83 18
Width: 575
VWidth: 1048
Flags: W
HStem: -8 61<186.354 391.212> 653 62<199.164 389.168>
VStem: 75 71<461.266 605.161> 446 73<102.854 248.86>
LayerCount: 2
Fore
SplineSet
298 715 m 1
 384 715 444 682 497 623 c 1
 451 581 l 1
 410 627 364 653 293 653 c 1
 197 653 146 605 146 543 c 1
 146 453 190 425 311 385 c 0
 438 343 519 291 519 171 c 1
 519 48 413 -8 287 -8 c 1
 177 -8 108 34 56 96 c 1
 102 139 l 1
 136 94 205 53 287 53 c 1
 388 53 446 93 446 170 c 1
 446 278 372 297 248 338 c 0
 138 375 75 432 75 542 c 1
 75 647 171 715 298 715 c 1
EndSplineSet
Validated: 1
EndChar

StartChar: T
Encoding: 84 84 19
Width: 611
VWidth: 1048
Flags: W
HStem: 0 21G<269 341> 647 60<48 269 341 563>
VStem: 269 72<0 647>
LayerCount: 2
Fore
SplineSet
48 707 m 1
 563 707 l 1
 563 647 l 1
 48 647 l 1
 48 707 l 1
269 647 m 1
 341 647 l 1
 341 0 l 1
 269 0 l 1
 269 647 l 1
EndSplineSet
Validated: 5
Colour: ff0000
EndChar

StartChar: U
Encoding: 85 85 20
Width: 651
VWidth: 1048
Flags: W
HStem: -8 61<238.356 412.661> 687 20G<80 152 499 571>
VStem: 80 72<155.838 707> 499 72<154.94 707>
AnchorPoint: "AccentCenter" 307 880 basechar 0
LayerCount: 2
Fore
SplineSet
80 707 m 1
 152 707 l 1
 152 279 l 1
 152 109 234 53 328 53 c 0
 416 53 499 109 499 279 c 5
 499 707 l 5
 571 707 l 5
 571 277 l 5
 571 77 453 -8 324 -8 c 0
 199 -8 80 77 80 279 c 1
 80 707 l 1
EndSplineSet
Validated: 1
EndChar

StartChar: V
Encoding: 86 86 21
Width: 655
VWidth: 1048
Flags: W
HStem: 0 21G<273.267 380.761> 687 20G<42 129.393 525.55 613>
LayerCount: 2
Fore
SplineSet
304 0 m 1
 532 707 l 5
 613 707 l 5
 374 0 l 1
 304 0 l 1
42 707 m 5
 123 707 l 5
 349 0 l 1
 280 0 l 1
 42 707 l 5
EndSplineSet
Validated: 5
Colour: ff0000
EndChar

StartChar: W
Encoding: 87 87 22
Width: 812
VWidth: 1048
Flags: W
HStem: 0 21G<190.389 285.969 530.156 621.611> 687 20G<32 110.272 701.728 780>
VStem: 32 74<675.909 707> 706 74<675.909 707>
LayerCount: 2
Fore
SplineSet
599 0 m 1
 535 0 l 1
 380 640 l 1
 448 640 l 1
 599 0 l 1
780 707 m 5
 617 0 l 1
 555 0 l 1
 706 707 l 5
 780 707 l 5
213 0 m 1
 372 640 l 1
 440 640 l 1
 281 0 l 1
 213 0 l 1
32 707 m 1
 106 707 l 1
 257 0 l 1
 195 0 l 1
 32 707 l 1
EndSplineSet
Validated: 5
Colour: ff0000
EndChar

StartChar: X
Encoding: 88 88 23
Width: 660
VWidth: 1048
Flags: W
HStem: 0 21G<56 154.533 504.533 604> 687 20G<56 154.617 504.45 604>
LayerCount: 2
Fore
SplineSet
56 707 m 1
 142 707 l 1
 330 409 l 1
 517 707 l 5
 604 707 l 1
 375 354 l 1
 604 0 l 1
 517 0 l 5
 330 300 l 1
 142 0 l 1
 56 0 l 1
 285 354 l 1
 56 707 l 1
EndSplineSet
Validated: 1
EndChar

StartChar: Y
Encoding: 89 89 24
Width: 595
VWidth: 1048
Flags: W
HStem: 0 21G<263 336> 687 20G<24 121.138 474 571>
VStem: 263 73<0 275>
AnchorPoint: "AccentCenter" 296 880 basechar 0
LayerCount: 2
Fore
SplineSet
263 275 m 1
 336 275 l 1
 336 0 l 1
 263 0 l 1
 263 275 l 1
268 275 m 1
 484 707 l 1
 571 707 l 1
 331 263 l 1
 268 275 l 1
24 707 m 1
 111 709 l 5
 331 275 l 1
 268 263 l 1
 24 707 l 1
EndSplineSet
Validated: 5
Colour: ff0000
EndChar

StartChar: Z
Encoding: 90 90 25
Width: 603
VWidth: 1048
Flags: W
HStem: 0 61<146 539> 646 61<64 539>
LayerCount: 2
Fore
SplineSet
457 646 m 5
 539 646 l 5
 146 61 l 1
 64 61 l 1
 457 646 l 5
64 61 m 1
 539 61 l 1
 539 0 l 1
 64 0 l 1
 64 61 l 1
64 707 m 5
 539 707 l 5
 539 646 l 5
 64 646 l 5
 64 707 l 5
EndSplineSet
Validated: 5
EndChar

StartChar: bracketleft
Encoding: 91 91 26
Width: 394
VWidth: 1048
Flags: W
HStem: -66 62<110 293> 757 62<110 293>
VStem: 77 216<-66 -4 757 819> 110 41<-66 -4 757 819>
LayerCount: 2
Fore
SplineSet
110 757 m 1xd0
 110 819 l 1xd0
 293 819 l 5
 293 757 l 5xe0
 110 757 l 1xd0
110 -66 m 1
 110 -4 l 1xd0
 293 -4 l 5
 293 -66 l 5xe0
 110 -66 l 1
77 819 m 1xe0
 151 819 l 1
 151 -66 l 1xd0
 77 -66 l 1
 77 819 l 1xe0
EndSplineSet
Validated: 5
EndChar

StartChar: backslash
Encoding: 92 92 27
Width: 624
VWidth: 1048
Flags: W
LayerCount: 2
Fore
SplineSet
77 795 m 5
 144 819 l 5
 523 -38 l 5
 456 -62 l 5
 77 795 l 5
EndSplineSet
Validated: 1
EndChar

StartChar: bracketright
Encoding: 93 93 28
Width: 394
VWidth: 1048
Flags: W
HStem: -66 62<77 261> 757 62<77 261>
VStem: 77 216<-66 -4 757 819> 220 41<-66 -4 757 819>
LayerCount: 2
Fore
SplineSet
261 757 m 1xd0
 77 757 l 1
 77 819 l 1xe0
 261 819 l 1
 261 757 l 1xd0
261 -66 m 1xd0
 77 -66 l 1
 77 -4 l 1xe0
 261 -4 l 1
 261 -66 l 1xd0
293 819 m 1
 293 -66 l 1xe0
 220 -66 l 1
 220 819 l 1xd0
 293 819 l 1
EndSplineSet
Validated: 5
EndChar

StartChar: asciicircum
Encoding: 94 94 29
Width: 505
VWidth: 1048
Flags: W
HStem: 667 185
VStem: 77 327
LayerCount: 2
Fore
SplineSet
77 716 m 25
 208 852 l 1
 273 852 l 25
 404 716 l 25
 364 667 l 25
 241 786 l 25
 118 667 l 25
 77 716 l 25
EndSplineSet
Validated: 1
EndChar

StartChar: underscore
Encoding: 95 95 30
Width: 579
VWidth: 1048
Flags: W
HStem: -66 66<95 496>
LayerCount: 2
Fore
SplineSet
95 0 m 5
 496 0 l 5
 496 -66 l 5
 95 -66 l 5
 95 0 l 5
EndSplineSet
Validated: 1
EndChar

StartChar: grave
Encoding: 96 96 31
Width: 424
VWidth: 1048
Flags: W
HStem: 765 185
VStem: 77 247
LayerCount: 2
Fore
SplineSet
290 765 m 1
 77 889 l 1
 120 950 l 1
 324 814 l 1
 290 765 l 1
EndSplineSet
Validated: 1
EndChar

StartChar: a
Encoding: 97 97 32
Width: 557
Flags: W
HStem: -8 60<159.586 324.458> 0 21G<408.111 469> 246 61<166.124 396> 466 61<173.416 347.516>
VStem: 56 73<81.6253 212.783> 396 73<122.494 246 307 417.64> 411 58<0 49.6246>
AnchorPoint: "AccentCenter" 264 686 basechar 0
AnchorPoint: "Ring" 268 686 basechar 0
LayerCount: 2
Fore
SplineSet
129 147 m 4xbc
 129 84 165 52 240 52 c 4
 327 52 396 107 396 215 c 6
 396 246 l 5
 288 246 l 6
 180 246 129 226 129 147 c 4xbc
398 90 m 5
 373 25 303 -8 236 -8 c 4
 125 -8 56 52 56 147 c 4
 56 252 134 307 274 307 c 6
 396 307 l 5
 396 346 l 6
 396 430 339 466 262 466 c 4
 202 466 159 444 128 404 c 5
 84 440 l 5
 117 494 185 527 264 527 c 4
 373 527 469 474 469 332 c 6xbc
 469 122 l 5
 469 0 l 5
 411 0 l 5x7a
 398 90 l 5
EndSplineSet
Validated: 1
EndChar

StartChar: b
Encoding: 98 98 33
Width: 609
VWidth: 1048
Flags: W
HStem: -8 61<226.741 397.688> 0 21G<88 148.82> 466 61<224.394 396.733>
VStem: 88 74<51.4734 89 122 724> 88 57<0 37.5266> 479 74<144.048 375.461>
LayerCount: 2
Fore
SplineSet
135 421 m 1xb4
 151 462 204 527 317 527 c 1
 444 527 553 440 553 269 c 1
 553 78 441 -8 317 -8 c 1
 202 -8 151 75 131 122 c 5
 162 188 l 1
 162 110 225 53 313 53 c 1
 414 53 479 120 479 266 c 1
 479 399 407 466 313 466 c 1
 227 466 162 417 162 337 c 1
 135 421 l 1xb4
88 724 m 1
 162 724 l 1
 162 89 l 1x74
 145 0 l 1
 88 0 l 1x6c
 88 724 l 1
EndSplineSet
Validated: 5
EndChar

StartChar: c
Encoding: 99 99 34
Width: 530
VWidth: 1048
Flags: W
HStem: -8 60<213.114 403.22> 467 60<222.396 400.019>
VStem: 56 72<142.691 363.103>
LayerCount: 2
Fore
SplineSet
302 527 m 1
 383 527 437 503 484 451 c 1
 440 411 l 1
 410 448 365 467 304 467 c 1
 207 467 128 390 128 252 c 1
 128 111 208 52 304 52 c 1
 374 52 414 70 455 117 c 1
 498 76 l 1
 452 24 389 -8 302 -8 c 1
 155 -8 56 102 56 252 c 5
 56 429 170 527 302 527 c 1
EndSplineSet
Validated: 1
EndChar

StartChar: d
Encoding: 100 100 35
Width: 609
VWidth: 1048
Flags: W
HStem: -8 61<210.874 381.759> 0 21G<459.404 521> 466 61<212.267 384.48>
VStem: 56 74<144.048 375.461> 447 74<49.128 89 122 724> 463 58<0 39.872>
LayerCount: 2
Fore
SplineSet
473 421 m 1xb8
 447 337 l 1
 447 417 382 466 296 466 c 1
 202 466 130 399 130 266 c 1
 130 120 195 53 296 53 c 1
 384 53 447 110 447 188 c 1
 477 122 l 5
 457 75 406 -8 291 -8 c 1
 167 -8 56 78 56 269 c 1
 56 440 165 527 292 527 c 1
 405 527 457 462 473 421 c 1xb8
521 724 m 1
 521 0 l 1
 463 0 l 1x74
 447 89 l 1
 447 724 l 1
 521 724 l 1
EndSplineSet
Validated: 5
EndChar

StartChar: e
Encoding: 101 101 36
Width: 555
VWidth: 1048
Flags: W
HStem: -8 60<208.81 392.463> 238 62<129 431> 467 60<203.778 369.951>
VStem: 56 73<138.085 238 300 382.465> 431 68<300.745 405.26>
AnchorPoint: "AccentCenter" 289 686 basechar 0
LayerCount: 2
Fore
SplineSet
291 467 m 1
 184 467 129 392 129 300 c 1
 431 300 l 1
 431 318 l 1
 431 416 369 467 291 467 c 1
292 527 m 0
 401 527 499 447 499 307 c 1
 499 280 497 257 486 238 c 1
 129 238 l 1
 129 133 187 52 291 52 c 0
 358 52 413 73 450 124 c 1
 495 83 l 1
 439 23 382 -8 289 -8 c 0
 150 -8 56 98 56 261 c 0
 56 422 147 527 292 527 c 0
EndSplineSet
Validated: 1
EndChar

StartChar: f
Encoding: 102 102 37
Width: 456
VWidth: 1048
Flags: W
HStem: 0 21G<156 230> 458 61<111.2 402> 458 45<56 100.8> 674 58<274.957 408.383>
VStem: 156 74<0 626.559>
LayerCount: 2
Fore
SplineSet
341 674 m 1x98
 258 674 230 610 230 527 c 1
 230 0 l 25
 156 0 l 25
 156 520 l 1
 156 652 218 732 337 732 c 1
 365 732 386 728 416 718 c 1
 406 664 l 1
 383 672 366 674 341 674 c 1x98
56 503 m 1xb8
 156 519 l 1
 402 519 l 1
 402 458 l 1
 290 458 l 1xd8
 56 458 l 1
 56 503 l 1xb8
EndSplineSet
Validated: 5
EndChar

StartChar: g
Encoding: 103 103 38
Width: 567
VWidth: 1048
Flags: W
HStem: -192 57<152.867 401.237> 12 62<198 213 214 426.551> 467 60<177.701 335.267 466.803 535>
VStem: 32 79<-100.702 -8.08042> 67 66<86.9209 156.601 289.211 422.09> 378 73<284.699 426.14> 443 74<-100.824 -4.40758>
LayerCount: 2
Fore
SplineSet
414 446 m 1xe0
 430 490 467 527 535 527 c 1
 535 467 l 1
 487 467 461 451 442 412 c 1
 414 446 l 1xe0
64 362 m 0
 64 463 142 527 255 527 c 0
 371 527 451 463 451 362 c 0xe4
 451 253 369 188 253 188 c 0
 131 188 64 264 64 362 c 0
137 358 m 0
 137 282 178 245 259 245 c 0
 333 245 378 282 378 358 c 0
 378 424 333 467 259 467 c 0
 178 467 137 424 137 358 c 0
348 74 m 1
 445 74 517 31 517 -55 c 0
 517 -146 410 -192 275 -192 c 0
 106 -192 32 -129 32 -53 c 1xf2
 32 20 127 53 196 59 c 1
 198 74 l 1
 348 74 l 1
357 12 m 1
 213 12 l 5
 144 12 111 -14 111 -53 c 1
 111 -103 163 -135 277 -135 c 0
 373 -135 443 -112 443 -54 c 0
 443 -1 403 12 357 12 c 1
277 189 m 1
 185 182 133 160 133 119 c 0
 133 88 172 74 214 74 c 0
 208 25 l 0
 115 25 67 65 67 118 c 0xe8
 67 188 159 218 257 229 c 1
 277 189 l 1
EndSplineSet
Validated: 5
Colour: ff0000
EndChar

StartChar: h
Encoding: 104 104 39
Width: 586
VWidth: 1048
Flags: W
HStem: 0 21G<88 161 432 506> 466 61<218.52 376.161> 687 20G<88 161>
VStem: 88 73<0 707> 432 74<0 407.855>
AnchorPoint: "AccentCenter" 290 686 basechar 0
LayerCount: 2
Fore
SplineSet
143 413 m 1
 155 465 213 527 305 527 c 4
 435 527 506 435 506 326 c 1
 506 0 l 1
 432 0 l 1
 432 324 l 2
 432 414 379 466 296 466 c 4
 196 466 161 389 161 313 c 1
 143 413 l 1
88 707 m 1
 161 707 l 1
 161 0 l 1
 88 0 l 1
 88 707 l 1
EndSplineSet
Validated: 5
EndChar

StartChar: i
Encoding: 105 105 40
Width: 280
VWidth: 1048
Flags: W
HStem: 0 21G<102 176> 499 20G<102 176> 650 105<97.5153 182.485>
VStem: 88 104<659.515 745.146> 102 74<0 519>
LayerCount: 2
Fore
SplineSet
102 0 m 1xe8
 102 519 l 1
 176 519 l 1
 176 0 l 1
 102 0 l 1xe8
88 702 m 0xf0
 88 731 111 755 140 755 c 0
 169 755 192 731 192 702 c 0
 192 673 169 650 140 650 c 0
 111 650 88 673 88 702 c 0xf0
EndSplineSet
Validated: 1
EndChar

StartChar: j
Encoding: 106 106 41
Width: 273
VWidth: 1048
Flags: W
HStem: 499 20G<102 176> 650 105<97.5153 183.146>
VStem: 88 105<659.515 745.146> 102 74<-75.1158 519>
LayerCount: 2
Fore
SplineSet
88 702 m 0xe0
 88 731 111 755 140 755 c 0
 169 755 193 731 193 702 c 0
 193 673 169 650 140 650 c 0
 111 650 88 673 88 702 c 0xe0
2 -141 m 5
 64 -119 102 -72 102 45 c 1
 102 519 l 1
 176 519 l 1
 176 45 l 5xd0
 176 -94 108 -165 30 -192 c 5
 2 -141 l 5
EndSplineSet
Validated: 1
Colour: ff0000
EndChar

StartChar: k
Encoding: 107 107 42
Width: 531
VWidth: 1048
Flags: W
HStem: 0 21G<88 162 380.818 499> 499 20G<368.41 496>
VStem: 88 74<0 724>
LayerCount: 2
Fore
SplineSet
238 275 m 1
 499 0 l 1
 399 0 l 5
 149 275 l 1
 238 275 l 1
149 275 m 1
 388 519 l 5
 496 519 l 1
 238 275 l 1
 149 275 l 1
88 724 m 1
 162 724 l 1
 162 0 l 1
 88 0 l 1
 88 724 l 1
EndSplineSet
Validated: 5
Colour: ff0000
EndChar

StartChar: l
Encoding: 108 108 43
Width: 258
VWidth: 1048
Flags: W
HStem: 0 21G<88 162> 748 20G<88 162>
VStem: 88 74<0 768>
LayerCount: 2
Fore
SplineSet
88 0 m 1
 88 768 l 1
 162 768 l 1
 162 0 l 1
 88 0 l 1
EndSplineSet
Validated: 1
EndChar

StartChar: m
Encoding: 109 109 44
Width: 831
VWidth: 1048
Flags: W
HStem: 0 21G<88 161 385 458 686 759> 466 61<213.758 351.15 503.799 643.375> 499 20G<88 148.596>
VStem: 88 73<0 340 430 469.872> 88 57<479.128 519> 385 73<0 430> 686 73<0 421.332>
LayerCount: 2
Fore
SplineSet
437 420 m 1xc6
 451 465 494 527 594 527 c 1
 687 527 759 459 759 354 c 1
 759 0 l 1
 686 0 l 1
 686 353 l 1
 686 430 630 466 575 466 c 1
 496 466 459 407 458 352 c 1
 437 420 l 1xc6
151 434 m 1
 162 467 206 527 307 527 c 1
 378 527 426 486 446 430 c 1
 458 430 l 1
 458 0 l 1
 385 0 l 1
 385 369 l 1
 385 427 343 466 288 466 c 1
 200 466 161 398 161 340 c 1xd6
 151 434 l 1
88 519 m 1xae
 145 519 l 1xae
 161 430 l 1
 161 0 l 1
 88 0 l 1xb6
 88 519 l 1xae
EndSplineSet
Validated: 5
EndChar

StartChar: n
Encoding: 110 110 45
Width: 586
VWidth: 1048
Flags: W
HStem: 0 21G<88 161 432 506> 466 61<223.381 377.099> 499 20G<88 149.638>
VStem: 88 73<0 413 450 480.912> 88 57<488.088 519> 432 74<0 411.239>
AnchorPoint: "AccentCenter" 290 686 basechar 0
LayerCount: 2
Fore
SplineSet
88 519 m 1xac
 145 519 l 1xac
 161 450 l 1
 161 0 l 1
 88 0 l 1xb4
 88 519 l 1xac
143 413 m 1
 155 465 223 527 315 527 c 0
 445 527 506 435 506 326 c 1
 506 0 l 1
 432 0 l 1
 432 324 l 2
 432 414 383 466 300 466 c 0
 200 466 161 389 161 313 c 1xd4
 143 413 l 1
EndSplineSet
Validated: 5
EndChar

StartChar: o
Encoding: 111 111 46
Width: 604
VWidth: 1048
Flags: W
HStem: -8 60<217.664 384.888> 467 60<220.495 380.183>
VStem: 56 72<149.015 366.999> 476 72<152.141 366.999>
AnchorPoint: "AccentCenter" 286 686 basechar 0
LayerCount: 2
Fore
SplineSet
128 258 m 0
 128 121 208 52 300 52 c 0
 392 52 476 121 476 258 c 0
 476 395 392 467 300 467 c 0
 208 467 128 395 128 258 c 0
56 261 m 0
 56 428 165 527 300 527 c 0
 435 527 548 428 548 261 c 0
 548 94 435 -8 300 -8 c 0
 174 -8 56 94 56 261 c 0
EndSplineSet
EndChar

StartChar: p
Encoding: 112 112 47
Width: 608
VWidth: 1048
Flags: W
HStem: -8 61<221.406 391.628> 466 61<226.582 400.276>
VStem: 88 73<432 470.976> 88 57<480.024 519> 479 73<148.478 376.539>
LayerCount: 2
Fore
SplineSet
135 98 m 1xe8
 151 57 200 -8 313 -8 c 1
 440 -8 552 87 552 258 c 1
 552 449 441 527 317 527 c 1
 202 527 151 448 131 401 c 5
 161 331 l 1
 161 409 225 466 313 466 c 1
 414 466 479 403 479 257 c 1
 479 124 403 53 309 53 c 1
 223 53 161 102 161 182 c 1
 135 98 l 1xe8
88 -197 m 1xd8
 161 -197 l 1
 161 432 l 1xe8
 145 519 l 1
 88 519 l 1
 88 -197 l 1xd8
EndSplineSet
Validated: 5
EndChar

StartChar: q
Encoding: 113 113 48
Width: 616
VWidth: 1048
Flags: W
HStem: -8 61<228.045 394.877> 466 61<213.639 390.415> 499 20G<466.322 528>
VStem: 64 74<149.974 381.234> 454 74<-197 401 432 470.976> 470 58<480.024 519>
LayerCount: 2
Fore
SplineSet
479 98 m 1xd8
 463 57 417 -8 304 -8 c 1
 177 -8 64 87 64 258 c 1
 64 449 173 527 297 527 c 1
 412 527 463 448 483 401 c 1
 454 331 l 5
 454 409 392 466 304 466 c 5
 203 466 138 407 138 261 c 1
 138 128 214 53 308 53 c 1
 394 53 454 102 454 182 c 1
 479 98 l 1xd8
528 -197 m 1
 454 -197 l 1
 454 432 l 1xb8
 470 519 l 1
 528 519 l 1xb4
 528 -197 l 1
EndSplineSet
Validated: 5
EndChar

StartChar: r
Encoding: 114 114 49
Width: 418
VWidth: 1048
Flags: HW
HStem: 0 21G<88 161> 463 64<224.555 366.655> 499 20G<88 147.645>
VStem: 88 73<0 373 398 452.208> 88 57<464.792 519>
LayerCount: 2
Fore
SplineSet
308 527 m 1xd0
 339 527 353 525 378 517 c 1
 364 463 l 1
 304 463 l 1
 200 463 161 386 161 271 c 1
 137 373 l 1
 147 462 212 527 308 527 c 1xd0
88 519 m 1xa8
 145 519 l 1xa8
 161 398 l 1
 161 0 l 1
 88 0 l 1xb0
 88 519 l 1xa8
EndSplineSet
Colour: ff0000
EndChar

StartChar: s
Encoding: 115 115 50
Width: 522
VWidth: 1048
Flags: W
HStem: -9 60<155 354.538> 467 60<172.338 346.429>
VStem: 66 74<335.277 437.781> 384 74<79.5572 184.482>
LayerCount: 2
Fore
SplineSet
256 527 m 1
 330 527 394 501 442 438 c 1
 394 403 l 1
 365 440 324 467 258 467 c 1
 189 467 140 436 140 391 c 1
 140 348 149 320 281 288 c 0
 382 264 458 219 458 133 c 1
 458 37 375 -9 262 -9 c 1
 157 -9 90 23 44 90 c 1
 92 128 l 5
 126 78 183 51 260 51 c 1
 345 51 384 78 384 134 c 1
 384 186 341 214 227 239 c 0
 111 265 66 317 66 387 c 1
 66 463 141 527 256 527 c 1
EndSplineSet
Validated: 1
EndChar

StartChar: t
Encoding: 116 116 51
Width: 450
VWidth: 1048
Flags: W
HStem: -8 59<242.839 378.13> 459 60<56 370>
VStem: 142 73<81.5567 635>
LayerCount: 2
Fore
SplineSet
292 -8 m 1
 173 -8 142 70 142 173 c 1
 142 635 l 1
 215 686 l 1
 215 173 l 1
 215 90 242 51 302 51 c 1
 329 51 353 57 377 71 c 1
 394 23 l 1
 369 4 336 -8 292 -8 c 1
56 459 m 1
 56 519 l 1
 370 519 l 1
 370 459 l 1
 56 459 l 1
EndSplineSet
EndChar

StartChar: u
Encoding: 117 117 52
Width: 578
VWidth: 1048
Flags: W
HStem: -8 61<193.604 348.334> 0 21G<428.098 490> 499 20G<72 145 416 490>
VStem: 72 73<103.167 519> 416 74<45.264 82 119 519> 432 58<0 36.736>
AnchorPoint: "AccentCenter" 280 686 basechar 0
LayerCount: 2
Fore
SplineSet
490 0 m 1x74
 432 0 l 1x74
 416 82 l 1
 416 519 l 1
 490 519 l 1x78
 490 0 l 1x74
434 119 m 1
 405 46 353 -8 261 -8 c 0
 131 -8 72 85 72 194 c 1
 72 519 l 1
 145 519 l 1
 145 196 l 2
 145 106 184 53 267 53 c 0
 365 53 416 124 416 208 c 1xb8
 434 119 l 1
EndSplineSet
Validated: 5
EndChar

StartChar: v
Encoding: 118 118 53
Width: 556
VWidth: 1048
Flags: W
HStem: 0 21G<230.37 331.399> 499 20G<40 127.091 429.141 516>
LayerCount: 2
Fore
SplineSet
258 0 m 5
 436 519 l 1
 516 519 l 1
 324 0 l 5
 258 0 l 5
40 519 m 1
 120 519 l 1
 304 0 l 1
 238 0 l 1
 40 519 l 1
EndSplineSet
Validated: 5
Colour: ff0000
EndChar

StartChar: w
Encoding: 119 119 54
Width: 751
VWidth: 1048
Flags: W
HStem: 0 21G<169.798 277.74 467.568 575.434> 499 20G<40 119.74 327.106 424.586 629.952 711>
VStem: 40 75<491.443 519> 635 76<492.616 519>
LayerCount: 2
Fore
SplineSet
539 0 m 1
 472 0 l 1
 357 519 l 1
 420 519 l 1
 539 0 l 1
711 519 m 1
 570 0 l 1
 504 0 l 5
 635 519 l 5
 711 519 l 1
205 0 m 1
 332 519 l 1
 396 519 l 1
 273 0 l 1
 205 0 l 1
40 519 m 1
 115 519 l 1
 238 0 l 1
 175 0 l 1
 40 519 l 1
EndSplineSet
Validated: 5
Colour: ff0000
EndChar

StartChar: x
Encoding: 120 120 55
Width: 547
VWidth: 1048
Flags: W
HStem: 0 21G<40 143.521 403.573 507> 499 20G<40 143.714 403.381 507>
LayerCount: 2
Fore
SplineSet
40 519 m 1
 130 519 l 1
 274 309 l 1
 417 519 l 1
 507 519 l 1
 319 260 l 1
 507 0 l 1
 417 0 l 1
 274 213 l 5
 130 0 l 1
 40 0 l 1
 229 260 l 1
 40 519 l 1
EndSplineSet
Validated: 1
Colour: ff0000
EndChar

StartChar: y
Encoding: 121 121 56
Width: 571
VWidth: 1048
Flags: W
HStem: -207 56<89.8 119.095> 499 20G<56 144.188 423.969 515>
AnchorPoint: "AccentCenter" 287 686 basechar 0
LayerCount: 2
Fore
SplineSet
56 519 m 1
 137 519 l 1
 275 135 l 1
 289 85 l 1
 251 23 l 1
 56 519 l 1
68 -151 m 0
 148 -126 204.436523438 -76 238 -3 c 5
 257 41 l 1
 281 85 l 1
 296 135 l 1
 431 519 l 1
 515 519 l 1
 316 14 l 1
 257 -127 172 -182 93 -207 c 0
 68 -151 l 0
EndSplineSet
Validated: 5
Colour: ff0000
EndChar

StartChar: z
Encoding: 122 122 57
Width: 558
VWidth: 1048
Flags: W
HStem: 0 60<164 478> 455 64<83 472>
LayerCount: 2
Fore
SplineSet
388 455 m 5
 472 455 l 1
 164 60 l 1
 80 60 l 1
 388 455 l 5
80 60 m 1
 478 60 l 1
 478 0 l 1
 80 0 l 1
 80 60 l 1
83 519 m 1
 472 519 l 1
 472 455 l 1
 83 455 l 1
 83 519 l 1
EndSplineSet
Validated: 5
EndChar

StartChar: braceleft
Encoding: 123 123 58
Width: 369
VWidth: 1048
Flags: W
HStem: -70 62<222.875 321> 346 61<48 94.5857> 757 61<230.375 321>
VStem: 119 74<23.1736 321.566 426.392 719.703>
LayerCount: 2
Fore
SplineSet
119 636 m 1
 119 757 192 818 321 818 c 1
 321 757 l 1
 230 757 193 727 193 636 c 0
 193 513 l 1
 193 431 149 392 114 376 c 1
 147 364 193 331 193 247 c 5
 193 111 l 1
 193 10 230 -8 321 -8 c 1
 321 -70 l 1
 185 -70 119 -20 119 111 c 0
 119 151 119 199 119 273 c 17
 119 311 80 346 48 346 c 9
 48 407 l 1
 81 407 119 432 119 478 c 9
 119 636 l 1
EndSplineSet
Validated: 1
EndChar

StartChar: bar
Encoding: 124 124 59
Width: 235
VWidth: 1048
Flags: W
VStem: 77 74<-66 819>
LayerCount: 2
Fore
SplineSet
77 819 m 1
 151 819 l 1
 151 -66 l 1
 77 -66 l 1
 77 819 l 1
EndSplineSet
Validated: 1
EndChar

StartChar: braceright
Encoding: 125 125 60
Width: 369
VWidth: 1048
Flags: W
HStem: -70 61<48 138.625> 346 61<274.414 321> 756 62<48 146.125>
VStem: 176 74<28.2971 326.608 431.976 724.826>
LayerCount: 2
Fore
SplineSet
250 112 m 1
 250 -9 177 -70 48 -70 c 1
 48 -9 l 1
 139 -9 176 21 176 112 c 0
 176 240 l 5
 176 322 220 361 255 377 c 5
 222 389 176 430 176 514 c 5
 176 637 l 1
 176 738 139 756 48 756 c 1
 48 818 l 1
 184 818 250 768 250 637 c 0
 250 597 250 554 250 480 c 21
 250 442 289 407 321 407 c 13
 321 346 l 5
 288 346 250 321 250 275 c 13
 250 112 l 1
EndSplineSet
Validated: 1
EndChar

StartChar: asciitilde
Encoding: 126 126 61
Width: 669
VWidth: 1048
Flags: W
HStem: 225 66<378.297 484.61> 321 65<179 294.228>
LayerCount: 2
Fore
SplineSet
77 265 m 5
 77 265 117 386 249 386 c 4
 324 386 368 291 439 291 c 4
 497 291 525 384 525 384 c 5
 585 343 l 29
 585 343 537 225 431 225 c 4
 348 225 302 321 237 321 c 4
 162 321 128 225 128 225 c 5
 77 265 l 5
EndSplineSet
Validated: 1
EndChar

StartChar: exclam
Encoding: 33 33 62
Width: 298
VWidth: 1048
Flags: W
HStem: -8 121<89.4534 185.14>
VStem: 77 121<4.83948 99.7768> 92 90<297.352 757> 100 74<244 703.648>
LayerCount: 2
Fore
SplineSet
92 757 m 1xa0
 182 757 l 5xa0
 174 244 l 1
 100 244 l 1x90
 92 757 l 1xa0
77 52 m 0xc0
 77 85 100 113 137 113 c 0
 174 113 198 85 198 52 c 0
 198 19 174 -8 137 -8 c 0
 100 -8 77 19 77 52 c 0xc0
EndSplineSet
Validated: 1
EndChar

StartChar: quotedbl
Encoding: 34 34 63
Width: 597
VWidth: 1048
Flags: W
HStem: 510 52<99.416 119.789 329.278 349.789> 698 121<131.453 184.116 360.86 414.11>
VStem: 205 35<726 749.163> 434 35<726 750.54>
LayerCount: 2
Fore
SplineSet
409 819 m 5
 468 819 497 772 497 718 c 5
 497 617 403 528 333 510 c 5
 306 562 l 5
 373 582 434 657 434 723 c 5
 415 796 l 5
 409 819 l 5
348 759 m 4
 348 792 372 819 409 819 c 4
 446 819 469 792 469 759 c 4
 469 726 446 698 409 698 c 4
 372 698 348 726 348 759 c 4
179 819 m 5
 238 819 267 772 267 718 c 5
 267 617 173 528 103 510 c 5
 77 562 l 5
 144 582 205 657 205 723 c 5
 185 796 l 5
 179 819 l 5
119 759 m 4
 119 792 142 819 179 819 c 4
 216 819 240 792 240 759 c 4
 240 726 216 698 179 698 c 4
 142 698 119 726 119 759 c 4
EndSplineSet
Validated: 5
EndChar

StartChar: numbersign
Encoding: 35 35 64
Width: 710
VWidth: 1048
Flags: W
HStem: 0 21G<93 176.635 311 394.635> 209 61<77 609> 458 61<77 609>
LayerCount: 2
Fore
SplineSet
93 0 m 1
 297 724 l 1
 375 724 l 1
 171 0 l 1
 93 0 l 1
311 0 m 1
 515 724 l 1
 593 724 l 1
 389 0 l 1
 311 0 l 1
77 270 m 5
 609 270 l 5
 609 209 l 5
 77 209 l 5
 77 270 l 5
77 519 m 1
 609 519 l 1
 609 458 l 1
 77 458 l 1
 77 519 l 1
EndSplineSet
Validated: 5
EndChar

StartChar: dollar
Encoding: 36 36 65
Width: 600
VWidth: 1048
Flags: W
HStem: -8 61<200.03 408.403> 653 62<212.949 402.878>
VStem: 83 71<464.474 601.993> 269 73<-139 863> 466 73<104.04 246.739>
LayerCount: 2
Fore
SplineSet
314 715 m 5
 407 715 498 669 529 597 c 5
 466 568 l 5
 443 621 380 653 309 653 c 5
 213 653 154 605 154 543 c 5
 154 453 204 425 325 385 c 4
 452 343 539 291 539 171 c 5
 539 48 429 -8 303 -8 c 5
 193 -8 89 46 53 123 c 5
 119 154 l 5
 141 93 221 53 303 53 c 5
 404 53 466 93 466 170 c 5
 466 278 386 297 262 338 c 4
 152 375 83 432 83 542 c 5
 83 647 187 715 314 715 c 5
269 863 m 5
 342 863 l 5
 342 -139 l 5
 269 -139 l 5
 269 863 l 5
EndSplineSet
Validated: 5
EndChar

StartChar: percent
Encoding: 37 37 66
Width: 784
VWidth: 1048
Flags: W
HStem: -8 66<506.021 607.786> 0 21G<138 231.598> 254 66<507.178 606.252> 387 66<160.021 261.17> 649 66<161.178 260.896> 687 20G<537.373 630>
VStem: 64 74<475.378 626.108> 284 74<475.605 625.41> 410 74<80.3782 231.108> 630 74<80.3782 230.172>
LayerCount: 2
Fore
SplineSet
556 254 m 24xb3c0
 511 254 484 219 484 154 c 0
 484 90 511 58 557 58 c 24
 602 58 630 90 630 154 c 0
 630 218 601 254 556 254 c 24xb3c0
557 320 m 24
 644 320 704 255 704 156 c 0
 704 58 644 -8 557 -8 c 24
 470 -8 410 58 410 156 c 0
 410 255 470 320 557 320 c 24
210 649 m 24x3bc0
 165 649 138 614 138 549 c 0
 138 485 165 453 211 453 c 24
 256 453 284 486 284 550 c 0
 284 614 255 649 210 649 c 24x3bc0
211 715 m 24
 298 715 358 650 358 551 c 0
 358 453 298 387 211 387 c 24
 124 387 64 453 64 551 c 0
 64 650 124 715 211 715 c 24
138 0 m 1x77c0
 549 707 l 1
 630 707 l 1
 220 0 l 1
 138 0 l 1x77c0
EndSplineSet
Validated: 1
EndChar

StartChar: ampersand
Encoding: 38 38 67
Width: 691
VWidth: 1048
Flags: W
HStem: -8 61<213.488 406.23> 0 21G<543.69 659> 654 61<262.154 408.346>
VStem: 56 74<133.667 314.238> 145 74<469.257 614.474>
LayerCount: 2
Fore
SplineSet
572 386 m 1xb8
 643 368 l 1
 624 293 l 1
 575 105 474 -8 319 -8 c 5
 166 -8 56 69 56 227 c 1
 56 333 126 410 220 447 c 1
 251 402 l 1
 197 376 130 324 130 227 c 1
 130 113 198 53 319 53 c 1
 432 53 508 145 552 312 c 1
 572 386 l 1xb8
329 715 m 1
 441 715 481 669 523 610 c 1
 466 570 l 1
 438 611 402 654 332 654 c 1
 262 654 219 604 219 557 c 1
 219 488 250 449 292 401 c 1
 659 0 l 1
 562 0 l 1x78
 237 355 l 1
 196 401 145 465 145 550 c 1
 145 634 221 715 329 715 c 1
EndSplineSet
Validated: 5
Colour: ff0000
EndChar

StartChar: quotesingle
Encoding: 39 39 68
Width: 137
VWidth: 1048
Flags: W
HStem: 527 241<40 97>
VStem: 32 73<552.064 768> 40 57<527 742.936>
LayerCount: 2
Fore
SplineSet
105 768 m 1xc0
 97 527 l 1
 40 527 l 1xa0
 32 768 l 1
 105 768 l 1xc0
EndSplineSet
Validated: 1
EndChar

StartChar: parenleft
Encoding: 40 40 69
Width: 349
VWidth: 1048
Flags: W
VStem: 64 74<198.577 542.528>
LayerCount: 2
Fore
SplineSet
236 800 m 5
 317 800 l 5
 234 739 138 598 138 368 c 4
 138 139 242 7 317 -59 c 5
 231 -59 l 5
 126 26 64 191 64 368 c 4
 64 563 124 709 236 800 c 5
EndSplineSet
Validated: 1
EndChar

StartChar: parenright
Encoding: 41 41 70
Width: 349
VWidth: 1048
Flags: W
VStem: 211 74<198.472 542.423>
LayerCount: 2
Fore
SplineSet
113 -59 m 5
 32 -59 l 5
 115 2 211 143 211 373 c 4
 211 602 107 734 32 800 c 5
 118 800 l 5
 223 715 285 550 285 373 c 4
 285 178 225 32 113 -59 c 5
EndSplineSet
Validated: 1
EndChar

StartChar: asterisk
Encoding: 42 42 71
Width: 550
VWidth: 1048
Flags: W
HStem: 687 20G<89.9683 157.875 368.75 436.349>
VStem: 230 66<657.338 806>
LayerCount: 2
Fore
SplineSet
129 488 m 1
 188 573 l 1
 247 633 l 1
 280 608 l 1
 243 535 l 1
 182 451 l 1
 129 488 l 1
397 488 m 1
 344 451 l 1
 284 535 l 1
 247 608 l 1
 280 633 l 1
 338 573 l 1
 397 488 l 1
96 707 m 1
 195 675 l 1
 269 638 l 1
 257 599 l 1
 175 612 l 1
 77 644 l 1
 96 707 l 1
430 707 m 1
 450 644 l 1
 351 612 l 1
 269 599 l 1
 257 638 l 1
 332 675 l 1
 430 707 l 1
230 806 m 1
 296 806 l 1
 296 702 l 1
 284 621 l 1
 243 621 l 1
 230 702 l 1
 230 806 l 1
EndSplineSet
Validated: 5
EndChar

StartChar: plus
Encoding: 43 43 72
Width: 597
VWidth: 1048
Flags: W
HStem: 254 65<77 497>
VStem: 253 65<74 500>
LayerCount: 2
Fore
SplineSet
253 500 m 5
 318 500 l 5
 318 74 l 5
 253 74 l 5
 253 500 l 5
77 319 m 5
 497 319 l 5
 497 254 l 5
 77 254 l 5
 77 319 l 5
EndSplineSet
Validated: 5
EndChar

StartChar: comma
Encoding: 44 44 73
Width: 198
VWidth: 1048
Flags: W
HStem: -197 290
VStem: 44 72<-83.0046 93>
LayerCount: 2
Fore
SplineSet
44 93 m 5
 116 93 l 5
 116 16 l 5
 44 16 l 5
 44 93 l 5
116 16 m 5
 116 -85 65 -163 -3 -197 c 5
 -32 -146 l 5
 18 -116 44 -50 44 16 c 5
 116 16 l 5
EndSplineSet
Validated: 5
EndChar

StartChar: hyphen
Encoding: 45 45 74
Width: 450
VWidth: 1048
Flags: W
HStem: 254 65<77 375>
VStem: 77 298<254 319>
LayerCount: 2
Fore
SplineSet
77 319 m 1
 375 319 l 1
 375 254 l 1
 77 254 l 1
 77 319 l 1
EndSplineSet
Validated: 1
EndChar

StartChar: period
Encoding: 46 46 75
Width: 249
VWidth: 1048
Flags: W
HStem: -8 121<75.4534 171.14>
VStem: 63 121<4.83948 99.7768>
LayerCount: 2
Fore
SplineSet
63 52 m 4
 63 85 86 113 123 113 c 4
 160 113 184 85 184 52 c 4
 184 19 160 -8 123 -8 c 4
 86 -8 63 19 63 52 c 4
EndSplineSet
Validated: 1
EndChar

StartChar: slash
Encoding: 47 47 76
Width: 420
VWidth: 1048
Flags: W
HStem: 748 20G<333.507 420>
LayerCount: 2
Fore
SplineSet
1 -35 m 1
 342 768 l 1
 420 768 l 1
 79 -35 l 1
 1 -35 l 1
EndSplineSet
Validated: 1
EndChar

StartChar: zero
Encoding: 48 48 77
Width: 550
VWidth: 1048
Flags: W
HStem: -7 60<196.935 349.571> 655 60<196.065 352.618>
VStem: 36 74<195.942 535.931> 440 75<179.913 539.66>
LayerCount: 2
Fore
SplineSet
80 210 m 1
 422 567 l 1
 460 511 l 1
 117 154 l 1
 80 210 l 1
110 358 m 0
 110 159 160 53 273 53 c 0
 390 53 440 168 440 360 c 4
 440 549 392 655 274 655 c 0
 157 655 110 551 110 358 c 0
36 357 m 0
 36 589 109 715 274 715 c 0
 440 715 515 587 515 360 c 4
 515 131 439 -7 273 -7 c 0
 113 -7 36 121 36 357 c 0
EndSplineSet
Validated: 5
EndChar

StartChar: one
Encoding: 49 49 78
Width: 550
VWidth: 1048
Flags: W
HStem: 0 64<60 482> 687 20G<206.294 315>
VStem: 241 74<0 635>
LayerCount: 2
Fore
SplineSet
60 64 m 1
 482 64 l 1
 482 0 l 1
 60 0 l 1
 60 64 l 1
241 0 m 1
 241 635 l 1
 78 502 l 1
 42 554 l 1
 231 707 l 1
 315 707 l 1
 315 0 l 1
 241 0 l 1
EndSplineSet
Validated: 5
Colour: ff0000
EndChar

StartChar: two
Encoding: 50 50 79
Width: 550
VWidth: 1048
Flags: W
HStem: 0 68<170 494> 654 61<182.684 353.324>
VStem: 412 74<417.874 596.404>
LayerCount: 2
Fore
SplineSet
81 68 m 1
 326 329 l 0
 392 404 412 450 412 522 c 0
 412 600 355 654 270 654 c 0
 186 654 140 610 112 553 c 1
 61 584 l 1
 102 670 174 715 268 715 c 0
 404 715 486 627 486 518 c 0
 486 425 450 374 378 296 c 0
 170 68 l 1
 494 68 l 1
 494 0 l 1
 81 0 l 1
 81 68 l 1
EndSplineSet
Validated: 1
EndChar

StartChar: three
Encoding: 51 51 80
Width: 550
VWidth: 1048
Flags: W
HStem: -8 61<160.536 349.197> 339 66<183 325.301> 654 61<159.399 328.885>
VStem: 380 73<459.752 606.18> 410 74<114.186 283.518>
LayerCount: 2
Fore
SplineSet
46 587 m 1xf0
 78 670 150 715 234 715 c 1
 378 715 453 644 453 535 c 1xf0
 453 450 411 404 353 374 c 1
 421 359 484 301 484 204 c 1
 484 69 399 -8 247 -8 c 1
 128 -8 50 64 24 143 c 1
 90 172 l 1
 106 108 159 53 247 53 c 1
 351 53 409 94 410 206 c 1xe8
 410 299 349 339 245 339 c 9
 183 339 l 25
 183 405 l 25
 248 405 l 17
 317 405 380 451 380 534 c 1
 380 620 318 654 237 654 c 1
 166 654 132 620 112 562 c 5
 46 587 l 1xf0
EndSplineSet
Validated: 1
EndChar

StartChar: four
Encoding: 52 52 81
Width: 550
VWidth: 1048
Flags: W
HStem: 0 21G<336 409> 167 65<114 512> 687 20G<323.495 409>
VStem: 336 73<0 707>
LayerCount: 2
Fore
SplineSet
336 707 m 5
 391 669 l 5
 114 232 l 5
 39 232 l 5
 336 707 l 5
39 232 m 5
 512 232 l 5
 512 167 l 5
 39 167 l 5
 39 232 l 5
336 707 m 5
 409 707 l 5
 409 0 l 5
 336 0 l 5
 336 707 l 5
EndSplineSet
Validated: 5
EndChar

StartChar: five
Encoding: 53 53 82
Width: 550
VWidth: 1048
Flags: W
HStem: -8 60<148.628 344.583> 383 64<147 343.396> 641 66<177 457>
VStem: 421 74<128.858 308.154>
LayerCount: 2
Fore
SplineSet
249 447 m 1
 373 447 495 375 495 224 c 0
 495 76 383 -8 253 -8 c 1
 125 -8 74 40 39 91 c 1
 91 131 l 1
 123 82 162 52 253 52 c 1
 338 52 421 98 421 220 c 0
 421 330 349 383 247 383 c 1
 151 383 l 1
 147 447 l 1
 249 447 l 1
107 707 m 1
 177 707 l 1
 151 383 l 1
 81 383 l 1
 107 707 l 1
177 707 m 1
 457 707 l 1
 457 641 l 1
 160 641 l 1
 177 707 l 1
EndSplineSet
Validated: 5
EndChar

StartChar: six
Encoding: 54 54 83
Width: 550
VWidth: 1048
Flags: W
HStem: -8 61<185.861 359.048> 432 63<188.481 356.694> 662 53<340.106 369.246>
VStem: 46 72<129.286 355.643> 423 74<123.798 357.555>
LayerCount: 2
Fore
SplineSet
274 432 m 0
 170 432 118 358 118 255 c 0
 118 123 161 53 274 53 c 0
 388 53 423 132 423 246 c 4
 423 351 385 432 274 432 c 0
390 662 m 1
 322 638 172 560 142 435 c 1
 179 484 237 495 284 495 c 0
 424 495 497 403 497 246 c 4
 497 91 418 -8 274 -8 c 0
 113 -8 46 98 46 253 c 0
 46 341 49 446 154 580 c 0
 208 649 294 692 366 715 c 1
 390 662 l 1
EndSplineSet
Validated: 1
EndChar

StartChar: seven
Encoding: 55 55 84
Width: 550
VWidth: 1048
Flags: W
HStem: 0 21G<169 252.523> 519 127<46 118> 646 61<46 488>
VStem: 46 72<519 646>
LayerCount: 2
Fore
SplineSet
46 646 m 5xd0
 118 646 l 5
 118 519 l 1
 46 519 l 1
 46 646 l 5xd0
46 707 m 1xb0
 488 707 l 1
 488 646 l 1xb0
 46 646 l 1xd0
 46 707 l 1xb0
410 646 m 1
 488 646 l 1
 245 0 l 1
 169 0 l 1
 410 646 l 1
EndSplineSet
Validated: 5
Colour: ff0000
EndChar

StartChar: eight
Encoding: 56 56 85
Width: 550
VWidth: 1048
Flags: W
HStem: -7 61<181.928 371.387> 339 61<162 386> 654 61<192.482 358.11>
VStem: 48 74<113.548 276.87> 64 73<449.569 599.703> 412 73<449.691 600.056> 428 74<109.131 272.062>
LayerCount: 2
Fore
SplineSet
274 339 m 4xf2
 181 339 122 285 122 200 c 0
 122 86 195 54 274 54 c 0
 357 54 428 83 428 192 c 0
 428 279 369 339 274 339 c 4xf2
274 654 m 24
 196 654 137 611 137 520 c 0
 137 444 190 400 274 400 c 4
 359 400 412 444 412 521 c 0xec
 412 612 352 654 274 654 c 24
48 192 m 0xf2
 48 326 154 393 274 393 c 4
 394 393 502 326 502 192 c 0
 502 47 386 -7 274 -7 c 0
 162 -7 48 47 48 192 c 0xf2
64 521 m 0xec
 64 658 162 715 274 715 c 0
 386 715 485 658 485 521 c 0
 485 409 386 346 274 346 c 4
 162 346 64 409 64 521 c 0xec
EndSplineSet
Validated: 5
EndChar

StartChar: nine
Encoding: 57 57 86
Width: 550
VWidth: 1048
Flags: W
HStem: -8 21G<163.186 207.5> 246 62<186.946 357.936> 654 61<183.548 358.258>
VStem: 48 74<376.071 588.932> 422 72<372.333 584.024>
LayerCount: 2
Fore
SplineSet
270 308 m 0
 374 308 422 368 422 471 c 0
 422 593 375 654 270 654 c 4
 156 654 122 583 122 480 c 0
 122 375 167 308 270 308 c 0
260 246 m 0
 130 246 48 333 48 480 c 0
 48 611 126 715 270 715 c 4
 422 715 494 604 494 473 c 0
 494 385 493 272 390 141 c 0
 336 72 243 20 172 -8 c 1
 146 51 l 1
 214 83 277 110 318 155 c 0
 362 203 389 254 402 309 c 1
 361 252 307 246 260 246 c 0
EndSplineSet
Validated: 1
EndChar

StartChar: colon
Encoding: 58 58 87
Width: 313
VWidth: 1048
Flags: W
HStem: -8 121<108.453 204.14> 406 121<108.453 204.14>
VStem: 96 121<4.83948 99.7768 418.839 513.777>
LayerCount: 2
Fore
SplineSet
96 466 m 4
 96 499 119 527 156 527 c 4
 193 527 217 499 217 466 c 4
 217 433 193 406 156 406 c 4
 119 406 96 433 96 466 c 4
96 52 m 0
 96 85 119 113 156 113 c 0
 193 113 217 85 217 52 c 0
 217 19 193 -8 156 -8 c 0
 119 -8 96 19 96 52 c 0
EndSplineSet
Validated: 1
EndChar

StartChar: semicolon
Encoding: 59 59 88
Width: 388
VWidth: 1048
Flags: W
HStem: 406 121<117.453 213.14>
VStem: 105 121<418.839 513.777> 128 72<-8.02966 101.697>
LayerCount: 2
Fore
SplineSet
200 101 m 5xa0
 188 -28 139 -138 49 -197 c 5
 12 -154 l 5
 81 -94 124 4 128 108 c 5
 200 101 l 5xa0
105 466 m 4xc0
 105 499 128 527 165 527 c 4
 202 527 226 499 226 466 c 4
 226 433 202 406 165 406 c 4
 128 406 105 433 105 466 c 4xc0
EndSplineSet
Validated: 1
EndChar

StartChar: less
Encoding: 60 60 89
Width: 622
VWidth: 1048
Flags: W
LayerCount: 2
Fore
SplineSet
77 328 m 5
 493 504 l 5
 521 442 l 5
 77 258 l 5
 77 328 l 5
77 299 m 5
 521 115 l 5
 493 53 l 5
 77 229 l 5
 77 299 l 5
EndSplineSet
Validated: 5
EndChar

StartChar: equal
Encoding: 61 61 90
Width: 597
VWidth: 1048
Flags: W
HStem: 156 65<77 497> 352 66<77 497>
LayerCount: 2
Fore
SplineSet
77 418 m 5
 497 418 l 5
 497 352 l 5
 77 352 l 5
 77 418 l 5
77 221 m 5
 497 221 l 5
 497 156 l 5
 77 156 l 5
 77 221 l 5
EndSplineSet
Validated: 1
EndChar

StartChar: greater
Encoding: 62 62 91
Width: 622
VWidth: 1048
Flags: W
LayerCount: 2
Fore
SplineSet
521 328 m 5
 521 258 l 5
 77 442 l 5
 105 504 l 5
 521 328 l 5
521 299 m 5
 521 229 l 5
 105 53 l 5
 77 115 l 5
 521 299 l 5
EndSplineSet
Validated: 5
EndChar

StartChar: question
Encoding: 63 63 92
Width: 517
VWidth: 1048
Flags: W
HStem: -8 121<190.453 286.14> 670 62<145.842 324.406>
VStem: 178 121<4.83948 99.7768> 191 64<189.701 316.882> 374 72<472.509 621.639>
LayerCount: 2
Fore
SplineSet
41 640 m 1xd8
 82 686 140 732 235 732 c 1
 364 732 446 667 446 544 c 1
 445 446 358 390 297 338 c 0
 256 303 255 272 255 234 c 1
 255 217 257 204 260 190 c 1
 197 182 l 1
 193 204 191 223 191 241 c 1
 191 316 227 362 274 397 c 0
 326 436 374 478 374 540 c 1
 374 634 319 670 235 670 c 1
 175 670 125 646 86 594 c 1
 41 640 l 1xd8
178 52 m 0xe8
 178 85 201 113 238 113 c 0
 275 113 299 85 299 52 c 0
 299 19 275 -8 238 -8 c 0
 201 -8 178 19 178 52 c 0xe8
EndSplineSet
Validated: 1
EndChar

StartChar: at
Encoding: 64 64 93
Width: 954
Flags: W
HStem: -96 64<365.844 644.443> -20 20G<639.5 667> 131 64<401.099 543.946> 513 64<402.509 548.717> 736 64<355.435 612.139>
VStem: 48 72<222.476 500.251> 274 72<255.244 450.759> 606 72<245 370 498 528.912> 622 56<536.088 567> 834 72<272.007 517.889>
LayerCount: 2
Fore
SplineSet
667 0 m 1xfe40
 667 -71 l 1
 614 -90 561 -96 492 -96 c 1
 243 -96 48 68 48 364 c 1
 48 655 269 800 484 800 c 1
 724 800 906 634 906 387 c 1
 906 282 868 194 811 139 c 1
 745 131 l 1
 596 229 l 1
 646 280 l 1
 771 195 l 1
 802 237 834 308 834 390 c 1
 834 606 677 736 484 736 c 1
 298 736 120 611 120 364 c 1
 120 130 278 -32 496 -32 c 1
 567 -32 612 -26 667 0 c 1xfe40
622 567 m 1xfec0
 678 567 l 1xfec0
 678 245 l 1
 606 242 l 1
 606 498 l 1xff40
 622 567 l 1xfec0
675 370 m 1
 656 209 570 131 473 131 c 0
 358 131 274 213 274 357 c 0
 274 482 358 577 473 577 c 0
 569 577 623 514 675 370 c 1
475 513 m 0
 397 513 346 454 346 359 c 0
 346 247 397 195 474 195 c 0
 559 195 606 267 606 360 c 0xff40
 606 453 555 513 475 513 c 0
EndSplineSet
Validated: 5
EndChar

StartChar: gravecomb
Encoding: 768 768 95
Width: 0
VWidth: 1048
Flags: W
HStem: 745 185
VStem: -123 247
AnchorPoint: "AccentCenter" 4 840 mark 0
LayerCount: 2
Fore
SplineSet
90 745 m 5
 -123 869 l 5
 -80 930 l 5
 124 794 l 5
 90 745 l 5
EndSplineSet
Validated: 1
EndChar

StartChar: acutecomb
Encoding: 769 769 96
Width: 0
VWidth: 1048
Flags: W
HStem: 745 185
VStem: -123 247
AnchorPoint: "AccentCenter" 6 840 mark 0
LayerCount: 2
Fore
SplineSet
-90 745 m 1
 -123 794 l 1
 80 930 l 1
 124 869 l 1
 -90 745 l 1
EndSplineSet
Validated: 1
EndChar

StartChar: uni0302
Encoding: 770 770 97
Width: 0
VWidth: 1048
Flags: W
HStem: 745 185
VStem: -164 328
AnchorPoint: "AccentCenter" 0 840 mark 0
LayerCount: 2
Fore
SplineSet
-164 794 m 29
 -33 930 l 5
 33 930 l 29
 164 794 l 29
 123 745 l 29
 0 865 l 29
 -123 745 l 29
 -164 794 l 29
EndSplineSet
Validated: 1
EndChar

StartChar: tildecomb
Encoding: 771 771 98
Width: 0
VWidth: 1048
Flags: W
HStem: 768 21G<-179.5 -154> 777 65<31.7338 126.19> 847 66<-125.06 -16.4801>
AnchorPoint: "AccentCenter" 0 840 mark 0
LayerCount: 2
Fore
SplineSet
-205 808 m 5xa0
 -205 808 -181 913 -63 913 c 4
 -2 913 33 842 84 842 c 4
 142 842 145 919 145 919 c 5
 205 878 l 5
 205 878 179 777 82 777 c 4x60
 7 777 -12 847 -70 847 c 4
 -145 847 -154 768 -154 768 c 5
 -205 808 l 5xa0
EndSplineSet
Validated: 1
EndChar

StartChar: uni030A
Encoding: 778 778 100
Width: 0
VWidth: 1048
Flags: W
HStem: 743 49<-40.634 40.634> 888 49<-40.634 40.634>
VStem: -97 49<798.991 881.009> 48 49<798.991 881.009>
AnchorPoint: "Ring" 0 840 mark 0
LayerCount: 2
Fore
SplineSet
-48 840 m 4
 -48 811 -27 792 0 792 c 4
 27 792 48 811 48 840 c 4
 48 869 27 888 0 888 c 4
 -27 888 -48 869 -48 840 c 4
-97 840 m 4
 -97 896 -54 937 0 937 c 4
 54 937 97 896 97 840 c 4
 97 784 54 743 0 743 c 4
 -54 743 -97 784 -97 840 c 4
EndSplineSet
Validated: 1
EndChar

StartChar: uni0308
Encoding: 776 776 101
Width: 0
VWidth: 1048
Flags: W
HStem: 805 104<-147.146 -61.5153 61.5153 147.146>
VStem: -157 105<814.515 899.485> 52 105<814.515 899.485>
AnchorPoint: "AccentCenter" 0 860 mark 0
LayerCount: 2
Fore
SplineSet
52 857 m 0
 52 886 75 909 104 909 c 0
 133 909 157 886 157 857 c 0
 157 828 133 805 104 805 c 0
 75 805 52 828 52 857 c 0
-157 857 m 0
 -157 886 -133 909 -104 909 c 0
 -75 909 -52 886 -52 857 c 0
 -52 828 -75 805 -104 805 c 0
 -133 805 -157 828 -157 857 c 0
EndSplineSet
Validated: 1
EndChar

StartChar: dotlessi
Encoding: 305 305 116
Width: 250
VWidth: 1048
Flags: W
HStem: 0 21G<88 162> 499 20G<88 162>
VStem: 88 74<0 519>
AnchorPoint: "AccentCenter" 122 686 basechar 0
LayerCount: 2
Fore
SplineSet
88 0 m 1
 88 519 l 1
 162 519 l 1
 162 0 l 1
 88 0 l 1
EndSplineSet
Validated: 1
EndChar

StartChar: sterling
Encoding: 163 163 153
Width: 601
Flags: W
HStem: 0 64<64 537> 315 64<36 426> 655 60<257.163 431.493>
VStem: 122 72<427.944 597.314> 197 72<172.273 314.364>
LayerCount: 2
Back
SplineSet
48 64 m 1
 583 64 l 1
 583 0 l 1
 48 0 l 1
 48 64 l 1
EndSplineSet
Fore
SplineSet
36 379 m 1
 426 379 l 1
 426 315 l 1
 36 315 l 1
 36 379 l 1
64 64 m 1
 537 64 l 1
 537 0 l 1
 64 0 l 1
 64 64 l 1
122 527 m 1
 122 615 189 715 339 715 c 0
 470 715 518 646 553 598 c 1
 502 558 l 0
 458 624 420 655 336 655 c 1
 264 655 194 606 194 527 c 0
 194 417 269 371 269 265 c 0
 269 147 206 92 158 64 c 1
 64 64 l 1
 64 80 l 1
 64 80 197 113 197 267 c 0
 197 353 122 420 122 527 c 1
EndSplineSet
Validated: 5
EndChar

StartChar: AE
Encoding: 198 198 154
Width: 907
VWidth: 1048
Flags: W
HStem: 0 61<492 851> 184 62<191 420> 350 66<492 773> 646 61<492 851>
AnchorPoint: "AccentCenter" 605 880 basechar 0
LayerCount: 2
Fore
SplineSet
492 416 m 1
 773 416 l 1
 773 350 l 1
 492 350 l 1
 492 416 l 1
492 61 m 1
 851 61 l 1
 851 0 l 1
 492 0 l 1
 492 61 l 1
492 707 m 1
 851 707 l 1
 851 646 l 1
 492 646 l 1
 492 707 l 1
420 707 m 1
 492 707 l 1
 492 0 l 1
 420 0 l 1
 420 707 l 1
191 246 m 1
 420 246 l 5
 420 184 l 5
 191 184 l 1
 191 246 l 1
373 707 m 1
 420 707 l 1
 427 666 l 1
 116 0 l 1
 40 0 l 1
 373 707 l 1
EndSplineSet
Validated: 5
EndChar

StartChar: Euro
Encoding: 8364 8364 155
Width: 733
Flags: W
HStem: -8 64<339.948 538.613> 235 64<32 423> 425 64<32 487> 651 64<334.99 530.978>
VStem: 134 72<258.49 422.227>
LayerCount: 2
Back
Fore
SplineSet
32 299 m 1
 444 299 l 1
 423 235 l 1
 32 235 l 1
 32 299 l 1
32 489 m 1
 509 489 l 1
 487 425 l 1
 32 425 l 1
 32 489 l 1
436 715 m 5
 562 715 634 644 666 590 c 5
 609 557 l 5
 564 627 499 651 437 651 c 5
 291 651 206 542 206 360 c 5
 206 194 277 56 435 56 c 5
 532 56 582 94 629 162 c 5
 681 118 l 5
 628 46 564 -8 434 -8 c 5
 240 -8 134 157 134 362 c 4
 134 574 261 715 436 715 c 5
EndSplineSet
Validated: 5
EndChar

StartChar: yen
Encoding: 165 165 156
Width: 627
VWidth: 1048
Flags: W
HStem: 0 21G<279 352> 143 60<119 512> 298 60<119 276 279 284 347 352 355 512> 324 12<279 352> 687 20G<40 138.906 488.303 587>
VStem: 279 73<0 336>
AnchorPoint: "AccentCenter" 312 880 basechar 0
LayerCount: 2
Fore
SplineSet
119 203 m 1xcc
 512 203 l 1
 512 143 l 1
 119 143 l 1
 119 203 l 1xcc
119 358 m 1xec
 512 358 l 1
 512 298 l 1
 119 298 l 1
 119 358 l 1xec
279 336 m 1xdc
 352 336 l 1
 352 0 l 1
 279 0 l 1
 279 336 l 1xdc
276 324 m 1
 500 707 l 1
 587 707 l 1
 347 324 l 1
 276 324 l 1
40 707 m 1
 127 707 l 1
 355 324 l 1
 284 324 l 1
 40 707 l 1
EndSplineSet
Validated: 5
EndChar

StartChar: ae
Encoding: 230 230 157
Width: 877
Flags: W
HStem: -8 60<159.586 324.989 542.16 716.949> 242 62<161.402 396 469 753> 466 61<173.416 348.505 534.077 699.355>
VStem: 56 73<81.6253 211.941> 396 73<137 242 304 396> 753 68<304.492 405.487>
AnchorPoint: "AccentCenter" 289 686 basechar 0
LayerCount: 2
Back
Fore
SplineSet
621 467 m 1
 514 467 469 396 469 304 c 1
 753 304 l 1
 753 318 l 1
 753 416 699 467 621 467 c 1
622 527 m 0
 731 527 821 447 821 307 c 1
 821 280 819 261 808 242 c 1
 469 242 l 1
 469 137 517 52 621 52 c 0
 688 52 735 73 772 124 c 1
 817 83 l 1
 761 23 712 -8 619 -8 c 0
 480 -8 396 98 396 261 c 0
 396 422 477 527 622 527 c 0
129 147 m 0
 129 84 165 52 240 52 c 0
 327 52 396 107 396 215 c 2
 396 242 l 1
 288 242 l 2
 180 242 129 226 129 147 c 0
434 163 m 1
 432 57 326 -8 236 -8 c 0
 125 -8 56 52 56 147 c 0
 56 252 134 304 274 304 c 2
 396 304 l 1
 396 346 l 2
 396 430 339 466 262 466 c 0
 202 466 159 444 128 404 c 1
 84 440 l 1
 117 494 185 527 264 527 c 0
 373 527 456 474 456 332 c 2
 469 178 l 1
 434 163 l 1
EndSplineSet
EndChar

StartChar: eth
Encoding: 240 240 158
Width: 596
Flags: W
HStem: -8 60<213.671 383.034> 467 60<213.294 380.86> 687 28G<271.579 347.5 411.112 469.679>
VStem: 56 72<147.993 373.224> 468 72<144.713 365.39>
LayerCount: 2
Back
Fore
SplineSet
202.466796875 604.999023438 m 1
 462 707 l 1
 481.166992188 657.078125 l 1
 221.6328125 555.077148438 l 1
 202.466796875 604.999023438 l 1
128 266.131216062 m 0
 128 115 203 52 300.8046875 52 c 0
 396 52 468 124 468 255.436787532 c 0
 468 398 389 467 296.743164062 467 c 0
 210 467 128 406 128 266.131216062 c 0
290 715 m 1
 405 641 540 495 540 259 c 1
 540 99 437 -8 300 -8 c 1
 159 -8 56 87 56 274 c 1
 56 412 152 527 285 527 c 1
 355 527 409 502 432 464 c 1
 397.173913043 553 325 635 255 677 c 1
 290 715 l 1
EndSplineSet
EndChar

StartChar: thorn
Encoding: 254 254 159
Width: 608
VWidth: 1048
Flags: HW
HStem: -8 61<221.406 391.628> 466 61<226.582 400.276>
VStem: 88 73<432 470.976> 88 57<480.024 519> 479 73<148.478 376.539>
LayerCount: 2
Fore
SplineSet
135 98 m 1xe8
 151 57 200 -8 313 -8 c 1
 440 -8 552 87 552 258 c 1
 552 449 441 527 317 527 c 1
 202 527 151 448 131 401 c 1
 161 331 l 1
 161 409 225 466 313 466 c 1
 414 466 479 403 479 257 c 1
 479 124 403 53 309 53 c 1
 223 53 161 102 161 182 c 1
 135 98 l 1xe8
88 -197 m 1xd8
 161 -197 l 1
 161 620 l 1xe8
 145 707 l 1
 88 707 l 1
 88 -197 l 1xd8
EndSplineSet
EndChar
